<svg xmlns="http://www.w3.org/2000/svg" width="29.27" height="29.268" viewBox="0 0 29.27 29.268">
    <g transform="translate(0 -0.016)">
        <g transform="translate(0 0.016)">
            <path d="M17.858,14.65,28.8,3.706a1.6,1.6,0,0,0,0-2.264L27.843.483a1.6,1.6,0,0,0-2.264,0L14.635,11.427,3.691.483a1.6,1.6,0,0,0-2.264,0l-.959.959a1.6,1.6,0,0,0,0,2.264L11.412,14.65.468,25.593a1.605,1.605,0,0,0,0,2.264l.959.959a1.6,1.6,0,0,0,2.264,0L14.635,17.873,25.578,28.816a1.588,1.588,0,0,0,1.132.467h0a1.588,1.588,0,0,0,1.132-.467l.959-.959a1.605,1.605,0,0,0,0-2.264Z" transform="translate(0 -0.016)" />
        </g>
    </g>
</svg>