<svg xmlns="http://www.w3.org/2000/svg" width="472.21" height="327.037" viewBox="0 0 472.21 327.037">
    <path d="M731.037,500.906c0,29.6-17.595,39.93-39.3,39.93s-39.3-10.334-39.3-39.93,39.3-67.247,39.3-67.247S731.037,471.31,731.037,500.906Z" transform="translate(-393.407 -277.285)" fill="#6c63ff"/>
    <path d="M659.145,435.541,675.9,404.9l-16.687,26.758.181-11.137,11.544-22.17-11.5,19.223.325-20.031,12.362-17.65-12.31,14.5.2-36.73L658.794,404.2,646.276,385.04l12.367,23.088L657.471,430.5l-.034-.594-14.489-20.245L657.393,432l-.147,2.8-.026.042.012.23-2.972,29.853h3.97l.476-2.412,14.409-22.288L658.743,460.31Z" transform="translate(-361.842 -201.286)" fill="#3f3d56"/>
    <path d="M946.758,204.458c0,56.536-33.61,76.277-75.07,76.277s-75.07-19.74-75.07-76.277S871.69,76,871.69,76,946.758,147.922,946.758,204.458Z" transform="translate(-474.548 -75.999)" fill="#f2f2f2"/>
    <path d="M863.256,196.088l.769-47.316,32-58.536-31.876,51.114.346-21.275,22.052-42.35-21.96,36.72h0L865.2,76.18l23.614-33.716L865.3,70.163,865.69,0l-2.441,92.883.2-3.832L839.441,52.3l23.623,44.1-2.237,42.735-.067-1.134L833.084,99.335l27.593,42.679-.28,5.344-.05.08.023.439L854.7,256.3h7.582l.91-56,27.526-42.575Z" transform="translate(-468.849 0)" fill="#3f3d56"/>
    <path d="M529.108,636.123c0,16.874-109.465,80.2-237.43,80.2s-231.7-32.776-231.7-49.65,101.19,3.183,229.155,3.183S529.108,619.249,529.108,636.123Z" transform="translate(-59.976 -389.291)" fill="#3f3d56"/>
    <path d="M529.108,636.123c0,16.874-109.465,80.2-237.43,80.2s-231.7-32.776-231.7-49.65,101.19,3.183,229.155,3.183S529.108,619.249,529.108,636.123Z" transform="translate(-59.976 -389.291)" opacity="0.1"/>
    <path d="M529.108,634.161c0,16.874-109.465,61.108-237.43,61.108s-231.7-13.679-231.7-30.554S161.165,648.8,289.13,648.8,529.108,617.287,529.108,634.161Z" transform="translate(-59.976 -387.328)" fill="#3f3d56"/>
    <ellipse cx="98.392" cy="7.61" rx="98.392" ry="7.61" transform="translate(135.901 272.982)" opacity="0.1"/>
    <path d="M415.171,368.965s28.805.533,23.471,5.6-25.338,0-25.338,0Z" transform="translate(-258.824 -240.876)" fill="#ffbbab"/>
    <path d="M271.393,227.93s11.63-2.077,15.674,7.312,12.349,36.164,12.349,36.164,22.225,14.711,26.267,14.228,10.953.5,9.685,4.913-.7,9.411-3.623,10.024-7.56-5.238-11.112-2.42-35.209-7.475-37.241-9.608-18.922-48.313-18.922-48.313S265.145,227.78,271.393,227.93Z" transform="translate(-175.062 -161.394)" fill="#6c63ff"/>
    <path d="M256.437,605.607l1.334,11.2-11.2,2.934-6.4-2.934V606.94Z" transform="translate(-135.163 -340.827)" fill="#ffbbab"/>
    <path d="M187.5,622.078l1.333,11.2-11.2,2.934-6.4-2.934v-9.868Z" transform="translate(-96.368 -350.097)" fill="#ffbbab"/>
    <path d="M278.455,397.824l5.068,18.4,7.468,37.34a36.772,36.772,0,0,1-2.134,20c-4.267,10.935-12,46.675-10.4,48.809s-18.137,3.734-17.87,1.6,2.934-31.472,2.934-31.472,3.734-25.871,5.6-29.072-8.535-11.2-8.535-11.2-2.667,30.672-6.668,33.339-3.468,44.008-5.335,44.541-15.47,2.667-17.07,0,0-47.209,0-47.209,9.068-33.873,7.2-38.674-.8-25.338-.8-25.338-6.935-15.736-3.2-24Z" transform="translate(-156.115 -255.467)" fill="#2f2e41"/>
    <path d="M301.573,150.5s-11.2,13.869-10.669,20-17.6-11.2-17.6-11.2,13.069-17.6,13.069-21.337S301.573,150.5,301.573,150.5Z" transform="translate(-180.033 -110.557)" fill="#ffbbab"/>
    <circle cx="17.603" cy="17.603" r="17.603" transform="translate(103.804 9.934)" fill="#ffbbab"/>
    <path d="M233.954,266.313c-.8,2.971-1.787,6.34-1.646,9.178.091,1.838,4.969,3.043,11.714,3.833,6.254.733,14.115,1.107,21.26,1.3,7.5.2,14.21.2,17.435.2,9.6,0,1.867-6.134-1.867-9.068s-2.934-44.541-2.667-49.876-2.4-20.8-2.4-23.738-6.276-10.591-6.276-10.591-1.459,4.19-7.327-1.411a31.184,31.184,0,0,0-13.6-7.2c-5.868,2.134-15.736,25.6-16.27,29.605-.216,1.624-.037,9.943.325,19.441.526,13.883,1.443,30.293,2.075,32.035C235.208,261.394,234.656,263.7,233.954,266.313Z" transform="translate(-156.91 -133.933)" fill="#6c63ff"/>
    <path d="M231.431,338.413l1.867,6.668-7.2,7.468-2.4-10.4Z" transform="translate(-125.893 -190.454)" fill="#ffbbab"/>
    <path d="M298.828,694.338s5.6,6.4,9.868,2.133,4-6.935,4.8-6.935,12.8,10.669,12.8,10.669,20.537,4.8,9.335,8.268-42.941,1.067-42.941,0-.8-15.2,2.134-15.2Z" transform="translate(-190.89 -421.29)" fill="#2f2e41"/>
    <path d="M229.894,710.808s5.6,6.4,9.868,2.133,4-6.934,4.8-6.934,12.8,10.668,12.8,10.668,20.537,4.8,9.335,8.268-42.941,1.067-42.941,0-.8-15.2,2.134-15.2Z" transform="translate(-152.095 -430.559)" fill="#2f2e41"/>
    <path d="M283.564,119.272c-.569.367-1.309.74-1.878.373a85.1,85.1,0,0,1-4.723-16.353c-.359-1.965-.609-4.15.483-5.823a14.293,14.293,0,0,0,1.366-1.922c.478-1.094.163-2.359.322-3.542.332-2.478,2.675-4.206,5.03-5.044s4.914-1.1,7.159-2.2c2.132-1.044,3.839-2.776,5.816-4.091s4.509-2.213,6.71-1.325c1.948.786,3.161,2.771,5,3.782a14.589,14.589,0,0,0,4.093,1.171,26.2,26.2,0,0,1,10.642,4.944,7.728,7.728,0,0,1,1.937,2c2.362,3.889-1.867,9.177,0,13.327l-4.034-3.183a14.047,14.047,0,0,0-3.6-2.29,4.748,4.748,0,0,0-4.133.187c-1.7,1.058-2.165,3.269-2.76,5.183s-1.911,4.038-3.915,3.989c-2.726-.067-3.68-3.871-6.126-5.076a4.722,4.722,0,0,0-4.962.877,10.175,10.175,0,0,0-2.774,4.481,12.216,12.216,0,0,1-1.389,3.132c-.733,1-1.669,1.081-2.452,1.827C287.335,115.639,286.083,117.644,283.564,119.272Z" transform="translate(-181.92 -77.683)" fill="#2f2e41"/>
    <path d="M234.493,288.718a124.287,124.287,0,0,0,10.069,13.01c6.254.733,14.114,1.107,21.26,1.3a16.843,16.843,0,0,0-4.7-4.331c-3.467-2.134-11.735-27.472-11.735-27.472s10.135-26.138,12.8-36.006-7.735-15.469-7.735-15.469c-4.8-4-13.069,5.334-13.069,5.334s-4.22,12.728-8.209,25.308c.525,13.883,1.443,30.293,2.075,32.035C235.747,283.8,235.195,286.1,234.493,288.718Z" transform="translate(-157.449 -156.338)" opacity="0.1"/>
    <path d="M243.615,214.869s10.4,5.6,7.735,15.469-12.8,36.006-12.8,36.006,8.268,25.338,11.735,27.472,8.268,7.2,4.534,9.868-6.4,6.935-9.068,5.6-2.667-8.8-7.2-8.8-22.937-27.738-23.2-30.672,15.2-49.609,15.2-49.609S238.814,210.868,243.615,214.869Z" transform="translate(-147.413 -153.592)" fill="#6c63ff"/>
    <path d="M130.95,564.3c0,24.581-14.613,33.163-32.639,33.163S65.672,588.879,65.672,564.3s32.639-55.851,32.639-55.851S130.95,539.718,130.95,564.3Z" transform="translate(-63.182 -319.375)" fill="#6c63ff"/>
    <path d="M61.077,497.131l13.912-25.451L61.13,493.9l.15-9.25,9.588-18.413L61.32,482.206l.27-16.636L71.857,450.91,61.632,462.954l.169-30.506L60.786,471.1l-10.4-15.914L60.66,474.364l-.972,18.58-.029-.493L47.625,475.637l12,18.556-.122,2.324-.022.035.01.191-2.468,24.794h3.3l.4-2,11.967-18.511L60.743,517.7Z" transform="translate(-26.803 -243.376)" fill="#3f3d56"/>
    <path d="M994.249,375.967l-14.113-23.225c-1.4-2.321-3.317-3.627-5.313-3.627s-3.909,1.306-5.313,3.627L880.926,496.429l-37.458-61.782c-1.393-2.3-3.292-3.6-5.272-3.6s-3.878,1.3-5.271,3.6l-14.252,23.043c-2.913,4.833-2.913,12.6,0,17.43l56.871,93.768c2.954,4.766,7.7,4.766,10.655,0L994.249,393.4a18.135,18.135,0,0,0,0-17.43Z" transform="translate(-666.095 -297.27)" fill="#3acc6c"/>
</svg>