<svg xmlns="http://www.w3.org/2000/svg" width="64.455" height="64.455" viewBox="0 0 64.455 64.455"><defs><style>.a{fill:#fff;}</style></defs><path class="a" d="M55.745,120.611a14.4,14.4,0,0,0,3.137-9.48c0-6.407-3.29-11.589-7.359-11.589s-7.359,5.182-7.359,11.589a14.327,14.327,0,0,0,3.137,9.48,13.127,13.127,0,0,0-4.349,4.017,16.269,16.269,0,0,0-5.969-5.122c2.691-2.571,4.5-7.251,4.5-12.574,0-8.115-4.17-14.683-9.323-14.683s-9.323,6.588-9.323,14.683c0,5.323,1.8,10,4.5,12.574a16.393,16.393,0,0,0-5.9,5.062,13.163,13.163,0,0,0-4.3-3.937,14.4,14.4,0,0,0,3.137-9.48c0-6.407-3.29-11.589-7.359-11.589S5.56,104.743,5.56,111.151a14.327,14.327,0,0,0,3.137,9.48C3.635,123.383,0,130.955,0,139.853v1.326c0,.04.026.08.051.08h15.6c-.089,1.1-.14,2.25-.14,3.394v1.366c0,5.905,3.035,10.686,6.785,10.686H42.06c3.749,0,6.785-4.78,6.785-10.686v-1.366c0-1.145-.051-2.29-.14-3.394H64.4c.026,0,.051-.04.051-.08v-1.326C64.43,130.935,60.808,123.363,55.745,120.611Zm-9.539-9.5c0-4.62,2.385-8.376,5.318-8.376s5.318,3.756,5.318,8.376c0,4.559-2.334,8.275-5.216,8.376h-.2C48.526,119.406,46.205,115.69,46.205,111.11Zm-21.349-4.178c0-6.327,3.265-11.469,7.282-11.469s7.282,5.142,7.282,11.469c0,6.106-3.048,11.107-6.861,11.449h-.842C27.9,118.04,24.856,113.039,24.856,106.933ZM7.563,111.11c0-4.62,2.385-8.376,5.318-8.376s5.318,3.756,5.318,8.376c0,4.559-2.334,8.275-5.216,8.376h-.2C9.9,119.406,7.563,115.69,7.563,111.11Zm8.443,26.915H2.066C2.64,129.469,7.231,122.76,12.8,122.7h.153c2.653.02,5.076,1.567,6.951,4.077A33,33,0,0,0,16.005,138.025Zm30.774,7.994c0,4.118-2.13,7.472-4.744,7.472H22.267c-2.614,0-4.744-3.354-4.744-7.472v-1.366c0-12.473,6.326-22.677,14.194-23.038a4.693,4.693,0,0,0,.867,0c7.869.362,14.194,10.565,14.194,23.038Zm1.518-7.994a32.946,32.946,0,0,0-3.864-11.168c1.887-2.571,4.336-4.118,7.014-4.158H51.6c5.573.06,10.164,6.769,10.738,15.325Z" transform="translate(0 -92.25)"/></svg>