<svg xmlns="http://www.w3.org/2000/svg" width="38" height="20" viewBox="0 0 38 20"><defs><style>.a{fill:#fff;}</style></defs><g transform="translate(-303.5 -45.5)"><path class="a" d="M34,2H0A2,2,0,0,1-2,0,2,2,0,0,1,0-2H34a2,2,0,0,1,2,2A2,2,0,0,1,34,2Z" transform="translate(305.5 47.5)"/><path class="a" d="M19,2H0A2,2,0,0,1-2,0,2,2,0,0,1,0-2H19a2,2,0,0,1,2,2A2,2,0,0,1,19,2Z" transform="translate(320.5 55.5)"/><path class="a" d="M28,2H0A2,2,0,0,1-2,0,2,2,0,0,1,0-2H28a2,2,0,0,1,2,2A2,2,0,0,1,28,2Z" transform="translate(311.5 63.5)"/></g></svg>