<svg xmlns="http://www.w3.org/2000/svg" width="61.522" height="65.463" viewBox="0 0 61.522 65.463">
    <g transform="translate(0 0)">
        <path class="a" d="M75.652,35.875H73.094V28.266a4.553,4.553,0,0,0-3.675-4.46l2.126-2.124a3.884,3.884,0,0,0,0-5.5L56.483,1.135a3.894,3.894,0,0,0-5.5,0l-22.6,22.586H19.955a4.551,4.551,0,0,0-4.547,4.544V60.918a4.551,4.551,0,0,0,4.547,4.544H68.548a4.551,4.551,0,0,0,4.547-4.544V53.309h2.557A1.279,1.279,0,0,0,76.93,52.03V37.153A1.279,1.279,0,0,0,75.652,35.875ZM52.793,2.944a1.334,1.334,0,0,1,1.883,0l15.062,15.05a1.327,1.327,0,0,1,0,1.878l-3.852,3.849H61.4l1.631-1.63a1.279,1.279,0,0,0,0-1.809,1.907,1.907,0,0,1,0-2.7,1.279,1.279,0,0,0,0-1.809L56.894,9.638a1.279,1.279,0,0,0-1.808,0,1.915,1.915,0,0,1-2.7,0,1.279,1.279,0,0,0-1.808,0L36.48,23.722H32Zm7.66,18.112-2.667,2.665H40.1l11.512-11.5a4.49,4.49,0,0,0,4.248,0l4.595,4.591a4.481,4.481,0,0,0,0,4.247ZM17.965,60.918V28.266a1.99,1.99,0,0,1,1.99-1.987h3.362V62.9H19.955A1.991,1.991,0,0,1,17.965,60.918Zm52.572,0a1.99,1.99,0,0,1-1.99,1.987H25.874V26.279H68.548a1.991,1.991,0,0,1,1.99,1.987v7.609H60.845a8.717,8.717,0,1,0,0,17.434h9.693Zm3.836-10.166H60.845a6.16,6.16,0,0,1,0-12.32H74.373Z" transform="translate(-15.408 0)"/>
        <path class="a" d="M344.2,319.78a4.251,4.251,0,1,0,4.251-4.248A4.254,4.254,0,0,0,344.2,319.78Zm4.251-1.691a1.691,1.691,0,1,1-1.693,1.691A1.694,1.694,0,0,1,348.453,318.089Z" transform="translate(-302.162 -275.188)"/>
    </g>
</svg>