<svg xmlns="http://www.w3.org/2000/svg" width="63.139" height="63.145" viewBox="0 0 63.139 63.145"><defs><style>.a{fill:#fff;}</style></defs><path class="a" d="M61.943,27.465l0,0L36.18,1.7a5.812,5.812,0,0,0-8.221,0L2.214,27.447l-.026.026a5.811,5.811,0,0,0,3.868,9.9c.06.006.119.009.18.009H7.262V56.341a6.811,6.811,0,0,0,6.8,6.8H24.143a1.85,1.85,0,0,0,1.85-1.85V46.433a3.108,3.108,0,0,1,3.1-3.1h5.944a3.107,3.107,0,0,1,3.1,3.1V61.295A1.85,1.85,0,0,0,40,63.145H50.073a6.811,6.811,0,0,0,6.8-6.8V37.386h.952a5.814,5.814,0,0,0,4.114-9.921Zm-2.62,5.6a2.1,2.1,0,0,1-1.494.62h-2.8a1.85,1.85,0,0,0-1.85,1.85V56.341a3.107,3.107,0,0,1-3.1,3.1H41.846V46.433a6.812,6.812,0,0,0-6.8-6.8H29.1a6.812,6.812,0,0,0-6.8,6.8V59.445H14.066a3.108,3.108,0,0,1-3.1-3.1V35.536a1.85,1.85,0,0,0-1.85-1.85H6.358l-.087,0a2.111,2.111,0,0,1-1.455-3.605h0L30.576,4.318a2.112,2.112,0,0,1,2.988,0L59.315,30.07l.012.012a2.118,2.118,0,0,1,0,2.985Zm0,0" transform="translate(-0.5 0.001)"/></svg>