<svg xmlns="http://www.w3.org/2000/svg" xmlns:xlink="http://www.w3.org/1999/xlink" viewBox="0 0 305 249.5">
  <defs>
    <style>
      .cls-1, .cls-13, .cls-5 {
        fill: #8d81db;
      }

      .cls-1, .cls-4 {
        opacity: 0.18;
      }

      .cls-2 {
        fill: url(#linear-gradient);
      }

      .cls-10, .cls-3, .cls-9 {
        fill: #fff;
      }

      .cls-3 {
        opacity: 0.54;
      }

      .cls-6 {
        fill: #282328;
      }

      .cls-7 {
        fill: #473f47;
      }

      .cls-8 {
        fill: #ffbbab;
      }

      .cls-10, .cls-11 {
        opacity: 0.1;
      }

      .cls-11 {
        fill: #020202;
      }

      .cls-12 {
        fill: #fc682d;
      }

      .cls-13 {
        opacity: 0.41;
      }
    </style>
    <linearGradient id="linear-gradient" x1="-0.008" y1="-0.968" x2="1.062" y2="1.438" gradientUnits="objectBoundingBox">
      <stop offset="0.01"/>
      <stop offset="0.08" stop-opacity="0.69"/>
      <stop offset="0.21" stop-opacity="0.322"/>
      <stop offset="1" stop-opacity="0"/>
    </linearGradient>
  </defs>
  <g id="human_profile" transform="translate(-0.006 0.006)">
    <path id="Path_32" data-name="Path 32" class="cls-1" d="M353.523,254.494c-2.538,11.794-7.849,22.769-17.018,30.623-16.19,13.888-40.279,14.658-61.366,10.213s-41.058-13.284-62.4-16.123c-27.49-3.667-55.175,2.822-82.792,5.463-16.35,1.564-33.775,1.564-48.027-6.423-13.821-7.739-22.728-22.107-27-37.12s-4.415-30.814-4.382-46.407c.051-29.3,3.553-63.788,29.283-78.768,11.58-6.737,25.553-7.962,38.3-12.216,21.992-7.325,39.56-23.315,58.677-36.21,6.175-4.138,12.62-8.061,19.691-10.453,20.5-6.952,37.505-.248,56.672,5.578,20.3,6.191,39.992-4.85,60.444-.141,21.341,4.916,33.952,27.313,36.693,48.584s-1.692,42.823-.846,64.259c.7,19.177,5.54,38.072,6.039,57.233a91.885,91.885,0,0,1-1.971,21.908Z" transform="translate(-50.53 -48.251)"/>
    <path id="Path_33" data-name="Path 33" class="cls-2" d="M381.1,294.5c-2.483,11.794-7.681,22.769-16.652,30.623L248.37,291.567l12.713-.662,72.478,11.438-68.505-14.608,11.008-1.515Z" transform="translate(-78.065 -88.254)"/>
    <path id="Path_34" data-name="Path 34" class="cls-1" d="M362.492,140.06l-79.538,2.789c-3.311.116-5.794,2.317-5.794,5.173V234.1c0,2.632,2.127,4.767,5.131,5.2l79.157,5.52a9.518,9.518,0,0,0,10.619-9.17l.315-86.134a9.684,9.684,0,0,0-9.89-9.452Z" transform="translate(-83.027 -63.064)"/>
    <path id="Path_35" data-name="Path 35" class="cls-3" d="M100,60.176,223.04,77.971a8.972,8.972,0,0,1,7.689,8.881V212.391a8.98,8.98,0,0,1-6.762,8.7L101.9,252.11a15.585,15.585,0,0,1-19.425-15.047L81.9,75.91A15.841,15.841,0,0,1,100,60.176Z" transform="translate(-55.935 -49.269)"/>
    <g id="Group_39" data-name="Group 39" class="cls-4" transform="translate(17.282 -0.006)">
      <path id="Path_36" data-name="Path 36" class="cls-5" d="M90.711,261.111a18.713,18.713,0,0,1-18.664-18.647L71.41,66.082a18.986,18.986,0,0,1,21.7-18.862l134.66,19.475A11.538,11.538,0,0,1,237.6,78.058V215.449a11.471,11.471,0,0,1-8.649,11.157L95.362,260.54a19.035,19.035,0,0,1-4.651.571Zm-.323-210.8A15.659,15.659,0,0,0,74.721,66.04l.637,176.374a15.394,15.394,0,0,0,19.193,14.9l133.584-33.934a8.169,8.169,0,0,0,6.158-7.921V78.066a8.21,8.21,0,0,0-7-8.086L92.639,50.5a15.924,15.924,0,0,0-2.251-.182Z" transform="translate(-71.41 -47.024)"/>
    </g>
    <path id="Path_37" data-name="Path 37" class="cls-1" d="M118.844,80.51h68.133v58.226L118,151.357Z" transform="translate(-17.543 -13.876)"/>
    <path id="Path_38" data-name="Path 38" class="cls-1" d="M251.135,163.336c-3,2.077-3.749,6.125-4.238,9.742-.629,4.651-1.241,9.526.406,13.921,7.672-2.682,13.309-9.1,18.581-15.32a8.434,8.434,0,0,0,2.21-3.816,6.456,6.456,0,0,0-1-4.138c-1.515-2.69-3.873-4.784-5.984-7.027-6.621-7.068-11.157-15.858-15.494-24.54-.414-.828-2.624,1.97-2.764,2.268a11.505,11.505,0,0,0-.629,4.718,21.8,21.8,0,0,0,.828,7.449C245,152.287,248.213,158.014,251.135,163.336Z" transform="translate(-79.74 -61.676)"/>
    <path id="Path_39" data-name="Path 39" class="cls-1" d="M230.945,173.469c-3.766-1.871-7.2-4.345-10.867-6.406-1.25-.7-2.8-1.349-4.031-.646s-1.457,2.549-.828,3.84a8.632,8.632,0,0,0,3.046,3.013l6.779,4.776a30.673,30.673,0,0,0,4.138,2.582,31.766,31.766,0,0,0,5.794,1.978l3.195.828c1.87.5,3.956,1,5.678.108a4.031,4.031,0,0,0,2.127-3.741c-.223-3.418-3.037-3.534-5.595-3.683a24.184,24.184,0,0,1-9.435-2.648Z" transform="translate(-75.515 -67.554)"/>
    <path id="Path_40" data-name="Path 40" class="cls-6" d="M266.313,283.175a3.848,3.848,0,0,0-1.771,1.655.828.828,0,0,0-.074.521.96.96,0,0,0,.629.538,11.472,11.472,0,0,0,6.348.265,34.836,34.836,0,0,1,6.365-.927,1.208,1.208,0,0,0,1.018-.281,1.1,1.1,0,0,0,.19-.67,12.778,12.778,0,0,0-.952-5.446c.05.108-5.628.331-6.116.67-.9.621-1.655,1.415-2.615,1.995S267.314,282.6,266.313,283.175Z" transform="translate(-83.305 -86.98)"/>
    <path id="Path_41" data-name="Path 41" class="cls-6" d="M272.836,234.019s.621,16.263,2.483,25.426a116.721,116.721,0,0,1,2.02,11.5h-5.132s-7.921-25.939-9.932-31.848-2.955-9.783-2.955-9.783Z" transform="translate(-82.47 -78.446)"/>
    <path id="Path_42" data-name="Path 42" class="cls-7" d="M253.11,228.06s.828,20.509,2.036,32.395,1.184,14.674,1.184,14.674,4.66,1.4,6.058,0l2.326-33.553,1.175-8.277Z" transform="translate(-81.592 -78.23)"/>
    <path id="Path_43" data-name="Path 43" class="cls-8" d="M224.056,157.766c-.182-1.068-.166-2.177-.257-3.261a2.425,2.425,0,0,0-.331-1.208.935.935,0,0,0-1.109-.364c-.48.24-.5.91-.488,1.457s-.124,1.241-.662,1.341a.894.894,0,0,1-.579-.124,1.912,1.912,0,0,1-1.01-1.424c-.05-.356,0-.72-.066-1.076-.207-1.035-1.531-.828-2.152-.323a4.056,4.056,0,0,0-.828,1.233,8.7,8.7,0,0,0-.968,2.483c-.654,3.567,3.642,4.337,5.454,6.621a7.5,7.5,0,0,0,.828,1,2.276,2.276,0,0,0,3.749-1.349c.207-1.333-.761-2.483-1.233-3.791a6.62,6.62,0,0,1-.348-1.217Z" transform="translate(-75.86 -65.185)"/>
    <path id="Path_44" data-name="Path 44" class="cls-8" d="M249.611,135.7a5.529,5.529,0,0,0-2.855-3.261,1.366,1.366,0,0,0-.952-.1,1.15,1.15,0,0,0-.654,1.2,3.187,3.187,0,0,0,.546,1.349,1.945,1.945,0,0,1,.339.828.646.646,0,0,1-.463.712c-.265.041-.555-.141-.828,0a.488.488,0,0,0-.174.612,1.241,1.241,0,0,0,.488.48,12.984,12.984,0,0,1,1.655,1.01c.944.828,1.242,2.168,1.945,3.211a.546.546,0,0,0,.281.248.472.472,0,0,0,.3-.05,2.268,2.268,0,0,0,1.506-2.375,21.1,21.1,0,0,0-1.134-3.865Z" transform="translate(-80.358 -61.726)"/>
    <path id="Path_45" data-name="Path 45" class="cls-9" d="M260.608,150.9a13.857,13.857,0,0,1-2.053-2.64l-6.191-9.435-4.643,4.726a1.142,1.142,0,0,0-.372.563,1.217,1.217,0,0,0,.19.745l3.377,6.53a17.828,17.828,0,0,0,1.473,2.483,27.1,27.1,0,0,0,1.928,2.1c2.284,2.375,4.138,5.214,6.969,6.952a1.713,1.713,0,0,0,.828.306,1.846,1.846,0,0,0,.96-.3c2.243-1.184,6.563-3.1,5.123-6.34C266.866,153.668,262.785,152.94,260.608,150.9Z" transform="translate(-80.595 -62.85)"/>
    <path id="Path_46" data-name="Path 46" class="cls-10" d="M260.608,150.9a13.857,13.857,0,0,1-2.053-2.64l-6.191-9.435-4.643,4.726a1.142,1.142,0,0,0-.372.563,1.217,1.217,0,0,0,.19.745l3.377,6.53a17.828,17.828,0,0,0,1.473,2.483,27.1,27.1,0,0,0,1.928,2.1c2.284,2.375,4.138,5.214,6.969,6.952a1.713,1.713,0,0,0,.828.306,1.846,1.846,0,0,0,.96-.3c2.243-1.184,6.563-3.1,5.123-6.34C266.866,153.668,262.785,152.94,260.608,150.9Z" transform="translate(-80.595 -62.85)"/>
    <path id="Path_47" data-name="Path 47" class="cls-11" d="M253.7,143.511a4.585,4.585,0,0,1-.439-3.311,3.733,3.733,0,0,1,1.266,1.2c3.021,3.931,5.479,8.4,9.344,11.513a8.117,8.117,0,0,1,1.341,1.208c.72.894.778,2.955-.828,2.913-1.15,0-2.483-1.722-3.228-2.483a34.207,34.207,0,0,1-7.449-11.082Z" transform="translate(-81.598 -63.088)"/>
    <path id="Path_48" data-name="Path 48" class="cls-8" d="M263.29,146.361a3.393,3.393,0,0,1-.828,1.871,3.474,3.474,0,0,0-.389,3.633,5.4,5.4,0,0,0,2.483,1.655c.91.422,1.871,1.117,1.92,2.119,0,.546-.182,1.217.248,1.564a1.208,1.208,0,0,0,.72.19,39.6,39.6,0,0,0,4.32,0,1.523,1.523,0,0,0,.72-.149,1.8,1.8,0,0,0,.579-1.184c.488-2.011,2.044-3.575,2.88-5.471a8.277,8.277,0,0,0-1.1-8.392,2.417,2.417,0,0,0-.877-.737,2.69,2.69,0,0,0-1.059-.132c-2,0-4.188,0-5.876,1.159C265.583,143.538,263.183,144.482,263.29,146.361Z" transform="translate(-82.88 -63.281)"/>
    <path id="Path_49" data-name="Path 49" class="cls-12" d="M268.529,139.471a2.069,2.069,0,0,0,2.276,1.779c-.223.364.248.778.662.828s.935.108,1.142.48c.091.166.091.372.2.538s.472.331.637.571a1.109,1.109,0,0,1,0,.944l-.728,2.284a.877.877,0,0,1,1.432-.116,1.225,1.225,0,0,1-.29,1.515,8.06,8.06,0,0,1-1.415.9c.356.778,1.655.778,1.9,1.6a1.657,1.657,0,0,1,0,.745l-.472,2.16a3.311,3.311,0,0,0,1.655-.513l.1.753c.182-.331.828-.116.761.265a25.783,25.783,0,0,0,5.909-5.628,1.564,1.564,0,0,0,.447-1.076,4.571,4.571,0,0,0-.149-.579,2.732,2.732,0,0,1,.1-1.093,4.858,4.858,0,0,0-.488-3.559c-.828-1.316-2.433-1.9-3.84-2.566a20.369,20.369,0,0,1-4.925-3.261c-.72-.646-.7,0-1.291.2s-1.026-.124-1.556.108C269.6,137.2,268.438,138.4,268.529,139.471Z" transform="translate(-83.933 -62.392)"/>
    <path id="Path_50" data-name="Path 50" class="cls-9" d="M271.824,181.1c.141,5.4.555,10.809.48,16.214a178.835,178.835,0,0,1-2.367,23.274,1.564,1.564,0,0,1-.439,1.051,1.523,1.523,0,0,1-.828.232,38.218,38.218,0,0,1-8.848-.546,61.671,61.671,0,0,1-10.958-3.1c-2.781-1.035-5.909-2.715-6.249-5.661a8.385,8.385,0,0,1,.2-2.483c1.142-6.265,2.094-12.605,3.311-18.837l.77-3.94c.149-.753.3-1.515.5-2.251.257-.9.6-1.779.944-2.648.72-1.813,1.432-3.633,2.152-5.446l.05-.116c-6.721,2.8-15.146-.074-21.221-3.311-2.715-1.457-5.454-3.484-6.241-6.472a2.856,2.856,0,0,1,0-1.7,3.434,3.434,0,0,1,.745-1.084,30.069,30.069,0,0,1,2.317-2.276,2.657,2.657,0,0,1,.993-.637c1.01-.29,1.945.563,2.706,1.3a21.974,21.974,0,0,0,16.553,6.034,12.729,12.729,0,0,0,4.8-1.15,18.085,18.085,0,0,0,3.667-2.624,25.351,25.351,0,0,0,4.064-4.039,3.1,3.1,0,0,1,.9-.952,2.805,2.805,0,0,1,1.283-.257c1.771-.074,3.708-.422,5.454-.356s2.483,1.184,3.551,2.483a12.622,12.622,0,0,1,2.433,3.915c.828,2.483,0,5.123-.356,7.689a43.97,43.97,0,0,0-.372,7.705Z" transform="translate(-76.477 -66.38)"/>
    <path id="Path_51" data-name="Path 51" class="cls-11" d="M271.824,181.1c.141,5.4.555,10.809.48,16.214a178.835,178.835,0,0,1-2.367,23.274,1.564,1.564,0,0,1-.439,1.051,1.523,1.523,0,0,1-.828.232,38.218,38.218,0,0,1-8.848-.546,61.671,61.671,0,0,1-10.958-3.1c-2.781-1.035-5.909-2.715-6.249-5.661a8.385,8.385,0,0,1,.2-2.483c1.142-6.265,2.094-12.605,3.311-18.837l.77-3.94c.149-.753.3-1.515.5-2.251.257-.9.6-1.779.944-2.648.72-1.813,1.432-3.633,2.152-5.446l.05-.116c-6.721,2.8-15.146-.074-21.221-3.311-2.715-1.457-5.454-3.484-6.241-6.472a2.856,2.856,0,0,1,0-1.7,3.434,3.434,0,0,1,.745-1.084,30.069,30.069,0,0,1,2.317-2.276,2.657,2.657,0,0,1,.993-.637c1.01-.29,1.945.563,2.706,1.3a21.974,21.974,0,0,0,16.553,6.034,12.729,12.729,0,0,0,4.8-1.15,18.085,18.085,0,0,0,3.667-2.624,25.351,25.351,0,0,0,4.064-4.039,3.1,3.1,0,0,1,.9-.952,2.805,2.805,0,0,1,1.283-.257c1.771-.074,3.708-.422,5.454-.356s2.483,1.184,3.551,2.483a12.622,12.622,0,0,1,2.433,3.915c.828,2.483,0,5.123-.356,7.689a43.97,43.97,0,0,0-.372,7.705Z" transform="translate(-76.477 -66.38)"/>
    <path id="Path_52" data-name="Path 52" class="cls-6" d="M249.444,288.512a3.833,3.833,0,0,0-1.771,1.655.828.828,0,0,0-.066.521.944.944,0,0,0,.621.538,11.5,11.5,0,0,0,6.323.248,34.641,34.641,0,0,1,6.356-.927,1.225,1.225,0,0,0,1.026-.281,1.092,1.092,0,0,0,.182-.67,12.919,12.919,0,0,0-.944-5.446c0,.116-5.636.331-6.125.67-.9.621-1.655,1.415-2.615,2S250.412,287.932,249.444,288.512Z" transform="translate(-80.722 -87.897)"/>
    <path id="Path_53" data-name="Path 53" class="cls-1" d="M140,128.156l3.708,25.227c.381,2.632,1.026,5.537.761,8.2s-.828,5.272-1.225,7.879a4.527,4.527,0,0,0,1.539-2.21c.952,2.2.157,4.718.074,7.118a1.606,1.606,0,0,0,.132.828,1.117,1.117,0,0,0,1.415.348,2.864,2.864,0,0,0,1.134-1.109,14.815,14.815,0,0,0,2.268-5.694c.4-2.243-.439-3.153-1.093-5.057-.6-1.771,0-4.064.248-5.86a64.094,64.094,0,0,0-.248-15.055c-.273-2.483-.6-4.908-.935-7.366l-.571-4.287L145.8,120.608c-.381-2.831-.7-5.943-2.582-8.277-1.655-2.019-4.287-2.648-6.481-3.84-1.655-.91-4.966-1.655-5.189-3.948a5.322,5.322,0,0,1,.828-2.731,23.373,23.373,0,0,0,2.317-11.827c-.223-3.311-.985-7.772-3.385-10.271a6.985,6.985,0,0,0-6.836-2.028,7.763,7.763,0,0,0-4.776,5.057,19.251,19.251,0,0,0-.7,7.151,30.624,30.624,0,0,0,1.15,7.8c.621,1.986,2.632,4.047,2.235,6.216-.356,1.92-2.326,2.566-3.882,3.211a18.349,18.349,0,0,0-5.38,3.311,14.368,14.368,0,0,0-3.311,5.322c-1.473,3.766-1.788,7.325-2.094,11.24-.356,4.511-.985,9.021-1.482,13.516a39.27,39.27,0,0,0-.306,4.18c0,3.36.828,6.671,1.126,10.023a29.8,29.8,0,0,1-.364,9.1c-.207.927-.422,1.854-.546,2.789a13.383,13.383,0,0,0,.141,4.486,6.861,6.861,0,0,0,1.655,3.369,2.152,2.152,0,0,0,.828.6,1.034,1.034,0,0,0,1-.182,1.581,1.581,0,0,0,.356-1.076,26.851,26.851,0,0,0,0-4.014c0-.356,0-.828.306-.952l.389,1.093c.083.232.232.5.472.5s.356-.232.43-.439c.662-1.9-.422-4.064-.588-5.959-.207-2.185.828-4.345,1.374-6.431.828-3.493.439-7.143.447-10.76a63.987,63.987,0,0,1,.828-9.576c.24-1.589.521-3.17.828-4.742.207-1.1.9-2.773.455-3.84.629,6.017,1.4,12.026,2.094,18.035a48.2,48.2,0,0,1,.464,10.056c-.612,6.282-2.144,11.993-2.028,18.415.124,6.969.952,13.921.712,20.9-.265,7.35-1.7,14.749-.546,22.016,1.109,6.894,4.527,13.929,2.293,20.551a6.737,6.737,0,0,0-.455,1.738,3.554,3.554,0,0,0,2.673,3.311,10.5,10.5,0,0,0,4.569.108c1.424-.174,3.021-.447,3.824-1.655,1.5-2.218-.935-4.834-1.482-6.952a49.113,49.113,0,0,1-1.159-8.277c-.339-4.693-.463-9.4-.488-14.07,0-4.42.455-9.1-.074-13.433a36.143,36.143,0,0,1,.828-12.539c.3-1.291.646-2.566,1.018-3.832.273-.944.439-2.706,1.175-3.4a15.394,15.394,0,0,1,1.655,5.669,102.192,102.192,0,0,1,.77,11.984c.149,4.138.3,8.277.687,12.415.728,7.788,2.284,15.676.737,23.34-.314,1.589-.753,3.311-.041,4.751a4.387,4.387,0,0,0,4.254,2.135,10.883,10.883,0,0,0,4.693-1.73,2.739,2.739,0,0,0,1.167-.977c.463-.919-.149-1.995-.654-2.889-3-5.28-2.822-11.761-1.854-17.753s2.673-11.935,2.442-18a83.141,83.141,0,0,0-1.407-10.064c-1.242-7.656-.546-14.9-.646-22.5-.091-6.431-1.465-12.754-2.226-19.135A38.693,38.693,0,0,1,140,128.156Z" transform="translate(-58.895 -52.278)"/>
    <g id="Group_40" data-name="Group 40" class="cls-4" transform="translate(100.323 38.161)">
      <path id="Path_54" data-name="Path 54" class="cls-5" d="M190.353,110.4c-2.367,0-4.594-1.655-5.918-3.311a29.672,29.672,0,0,1-2.053-3,22.942,22.942,0,0,0-2.483-3.476,11.521,11.521,0,0,0-11.306-3.236l-.223-.828a12.415,12.415,0,0,1,12.133,3.468,23.8,23.8,0,0,1,2.566,3.6,30.732,30.732,0,0,0,1.986,2.922c1.432,1.755,3.973,3.551,6.439,2.822a7.184,7.184,0,0,0,3.311-2.665,43.906,43.906,0,0,0,2.955-4.6,30.111,30.111,0,0,1,4.585-6.472,7.579,7.579,0,0,1,5.173-2.483,6.778,6.778,0,0,1,4.014,1.755,24.383,24.383,0,0,1,4.287,5.173c.72,1.059,1.465,2.144,2.284,3.129,1.986,2.392,5.454,4.767,8.7,3.584,2.193-.828,3.5-2.9,4.891-5.107s2.971-4.751,5.636-5.487l.215.828c-2.351.646-3.716,2.822-5.156,5.123s-2.839,4.544-5.305,5.438c-3.642,1.333-7.449-1.225-9.617-3.824-.828-1.01-1.6-2.119-2.334-3.195a23.564,23.564,0,0,0-4.138-4.966,5.976,5.976,0,0,0-3.509-1.564c-1.837-.083-3.509,1.159-4.569,2.21a29.581,29.581,0,0,0-4.453,6.3,43.375,43.375,0,0,1-3.013,4.693,7.945,7.945,0,0,1-3.758,2.955A5.041,5.041,0,0,1,190.353,110.4Z" transform="translate(-168.37 -93.139)"/>
    </g>
    <path id="Path_55" data-name="Path 55" class="cls-5" d="M169.583,111.411l-.083-.828a21.088,21.088,0,0,0,6.936-1.9,9.51,9.51,0,0,0,3.062-2.061,12.713,12.713,0,0,0,1.862-2.971c.2-.381.389-.77.6-1.15,1.655-3.013,5.082-6.431,9.253-6.1,3.021.232,5.438,2.359,6.927,4.138.828.985,1.6,2.061,2.326,3.1a36.864,36.864,0,0,0,2.483,3.228,6.108,6.108,0,0,0,2.591,1.945c1.97.629,4.014-.621,5.165-1.879a18.45,18.45,0,0,0,2.359-3.559c.315-.563.629-1.126.968-1.655,1.448-2.359,3.046-3.733,4.867-4.2a7.788,7.788,0,0,1,4.875.538,14.534,14.534,0,0,1,4.635,2.98c.43.422.828.828,1.242,1.3a18.117,18.117,0,0,0,1.879,1.862,4.651,4.651,0,0,0,3.766,1.142l.174.828a5.471,5.471,0,0,1-4.486-1.366,18.95,18.95,0,0,1-1.97-1.937c-.389-.43-.828-.828-1.208-1.266a13.756,13.756,0,0,0-4.362-2.814,7.085,7.085,0,0,0-4.362-.5c-1.606.422-3.037,1.655-4.37,3.849-.331.538-.637,1.084-.944,1.655a19.862,19.862,0,0,1-2.483,3.716c-1.316,1.44-3.683,2.855-6.034,2.1a6.969,6.969,0,0,1-2.963-2.185,39.2,39.2,0,0,1-2.483-3.311c-.72-1.026-1.465-2.077-2.284-3.037-1.39-1.655-3.625-3.609-6.365-3.816-3.8-.273-6.919,2.872-8.467,5.678-.2.364-.4.745-.588,1.126a13.342,13.342,0,0,1-1.986,3.145,10.288,10.288,0,0,1-3.311,2.26A22.132,22.132,0,0,1,169.583,111.411Z" transform="translate(-68.254 -55.537)"/>
    <path id="Path_56" data-name="Path 56" class="cls-9" d="M263.923,224.439a61.67,61.67,0,0,1-10.958-3.1c-2.781-1.035-5.909-2.715-6.249-5.661a8.385,8.385,0,0,1,.2-2.483c1.142-6.265,2.094-12.605,3.311-18.837l.77-3.94c.149-.753.3-1.515.5-2.251.257-.9.6-1.779.944-2.648.72-1.813,1.432-3.633,2.152-5.446,2.591-.72,5.049-1.142,7.59-2.7a282.425,282.425,0,0,1-5.736,27.967c-1.167,4.527-2.268,9.932.828,13.4C259.247,220.93,262.673,222.1,263.923,224.439Z" transform="translate(-80.549 -69.494)"/>
    <path id="Path_57" data-name="Path 57" class="cls-13" d="M313.257,150.639H266.42V61.9l46.837-2.847Z" transform="translate(-39.354 -10.178)"/>
    <path id="Path_58" data-name="Path 58" class="cls-9" d="M235.982,171.62c-3.782-1.349-7.631-2.69-10.652-5.4a1.655,1.655,0,0,1-.67-1.043,1.788,1.788,0,0,1,.753-1.291,8.2,8.2,0,0,1,1.821-1.382,2.748,2.748,0,0,1,2.218-.19,4.651,4.651,0,0,1,1.341,1.01,20.087,20.087,0,0,0,9.874,4.85,19.056,19.056,0,0,0,10.95-.546c1.995-.828,6.3-6.025,8.277-5.264s1.084,4.635.141,5.794c-2.028,2.591-7.168,3.807-10.238,4.395A26.386,26.386,0,0,1,235.982,171.62Z" transform="translate(-76.931 -66.873)"/>
    <path id="Path_59" data-name="Path 59" class="cls-9" d="M273.165,162.789a3.385,3.385,0,0,0,1.8-2.144,10.419,10.419,0,0,0-3.17-.157l-3.021.157-1.995.108c-1.241.058-1.266.6-.828,1.457.215.406.761.737,1.026,1.159s.281.91.555,1.233c.828.952,1.01.414,2.028-.2S272.015,163.385,273.165,162.789Z" transform="translate(-83.572 -66.575)"/>
  </g>
</svg>
