<svg xmlns="http://www.w3.org/2000/svg" viewBox="0 0 307.998 170.308">
  <defs>
    <style>
      .cls-1 {
        fill: #3f3d56;
      }

      .cls-2 {
        fill: #f8ce6d;
      }

      .cls-3 {
        opacity: 0.1;
      }

      .cls-4 {
        fill: #2f2e41;
      }

      .cls-5 {
        fill: #fff;
      }

      .cls-6 {
        fill: #e6e6e6;
      }

      .cls-7 {
        fill: #ccc;
      }

      .cls-8 {
        fill: #6c63ff;
      }
    </style>
  </defs>
  <g id="LoginImage" transform="translate(-18809.439 815.748)">
    <g id="Field" transform="translate(18832.654 -757.273)">
      <path id="Path_367" data-name="Path 367" class="cls-1" d="M426.693,678.677q12.948-2.027,24.9-3.446l-3.065-6.166c1.065-.356,5.677,3.214,5.677,3.214l-3.9-17.833c5.324.717,7.8,18.905,7.8,18.905l6.037-6.058-2.974,6.861c9.946-1.043-108.785,1.275-99.9.764,12.762-.733,152.526-4.027,162.994-3.911l-2.623-5.278c1.065-.356,5.677,3.214,5.677,3.214l-3.9-17.833c5.324.717,7.8,18.905,7.8,18.905l6.037-6.058-3.15,7.267a352.575,352.575,0,0,1,36.209,2.956c-2.616-8.2-11.761-16.091-11.761-16.091,7.034,2.2,10.692,5.789,12.585,9.111a143.551,143.551,0,0,0-7.6-49.581s14.181,32.1,12.041,53.5l-.272,3.8a144.912,144.912,0,0,1,18.547,3.88Z" transform="translate(-309.082 -578.185)"/>
      <path id="Path_368" data-name="Path 368" class="cls-1" d="M131.962,0c72.881,0,152.566,2.643,152.566,7.029s-79.686,8.853-152.566,8.853S0,12.326,0,7.941,59.082,0,131.962,0Z" transform="translate(0 92.672)"/>
    </g>
    <g id="Chest" transform="translate(18983.512 -689.089) rotate(-9)">
      <path id="Path_374" data-name="Path 374" class="cls-2" d="M51.045,12.871l-2.808,9.277-.122.4-4.7,15.531-7.608,6L-.157,27.392,3.628,11.277l.2-.848L5.856,1.8l0-.02L17.081-.1Z" transform="translate(0 0.08)"/>
      <path id="Path_375" data-name="Path 375" class="cls-3" d="M45.179,12.906,37.549,38.119l-7.608,6,7.452-27.493L-.011,1.839l0-.02L11.214-.067Z" transform="translate(5.866 0.045)"/>
      <path id="Path_376" data-name="Path 376" class="cls-3" d="M.588,1.248,0,.841,6.048-.036l25.641,9.89-.738.458L5.655.581Z" transform="translate(13.384 2.154)"/>
      <path id="Path_377" data-name="Path 377" class="cls-3" d="M44.6,11.718l-7.641,4.275L.2,0,0,.847,36.8,16.6l7.682-4.475" transform="translate(3.633 10.51)"/>
      <path id="Path_388" data-name="Path 388" class="cls-1" d="M1.521-.008A1.38,1.38,0,0,1,2.986,1.365,1.528,1.528,0,0,1,1.458,2.8,1.38,1.38,0,0,1-.008,1.424,1.528,1.528,0,0,1,1.521-.008Z" transform="translate(5.264 8.434) rotate(-72.75)"/>
      <path id="Path_389" data-name="Path 389" class="cls-1" d="M1.521-.008A1.38,1.38,0,0,1,2.986,1.365,1.528,1.528,0,0,1,1.458,2.8,1.38,1.38,0,0,1-.008,1.424,1.528,1.528,0,0,1,1.521-.008Z" transform="translate(37.676 22.214) rotate(-72.75)"/>
      <path id="Path_390" data-name="Path 390" class="cls-1" d="M1.521-.008A1.38,1.38,0,0,1,2.986,1.365,1.528,1.528,0,0,1,1.458,2.8,1.38,1.38,0,0,1-.008,1.424,1.528,1.528,0,0,1,1.521-.008Z" transform="translate(32.118 40.454) rotate(-72.75)"/>
      <path id="Path_391" data-name="Path 391" class="cls-1" d="M1.521-.008A1.38,1.38,0,0,1,2.986,1.365,1.528,1.528,0,0,1,1.458,2.8,1.38,1.38,0,0,1-.008,1.424,1.528,1.528,0,0,1,1.521-.008Z" transform="translate(0.887 26.031) rotate(-72.75)"/>
      <path id="Path_378" data-name="Path 378" class="cls-1" d="M2.816,1.445c-.084.294-.7.017-1.493-.25S-.079.628.006.33.841-.139,1.63.127,2.9,1.151,2.816,1.445Z" transform="translate(7.446 1.252)"/>
      <path id="Path_392" data-name="Path 392" class="cls-1" d="M.576,0c.3-.006.538.6.521,1.356S.819,2.725.514,2.731s-.538-.6-.521-1.356S.271,0,.576,0Z" transform="translate(11.526 1.229) rotate(-72.75)"/>
      <path id="Path_379" data-name="Path 379" class="cls-1" d="M2.87,1.379c-.084.294-.86.044-1.612-.209S-.078.628.006.335.813-.133,1.569.11,2.958,1.081,2.87,1.379Z" transform="translate(24.071 7.998)"/>
      <path id="Path_380" data-name="Path 380" class="cls-1" d="M3.047,1.509c-.095.33-.919.065-1.718-.2S-.088.725.007.395.876-.153,1.674.114,3.144,1.179,3.047,1.509Z" transform="translate(39.919 14.154)"/>
      <path id="Path_381" data-name="Path 381" class="cls-1" d="M3.047,1.509c-.1.33-.919.065-1.718-.2S-.089.725.007.395.876-.153,1.675.114,3.142,1.179,3.047,1.509Z" transform="translate(44.663 13.253)"/>
      <path id="Path_382" data-name="Path 382" class="cls-1" d="M2.513,1.378c-.1.33-.782.113-1.435-.108S-.08.773.007.444.763-.144,1.423.077,2.608,1.048,2.513,1.378Z" transform="translate(47.562 11.727)"/>
      <path id="Path_383" data-name="Path 383" class="cls-1" d="M2.58,1.243c-.076.262-.78.039-1.449-.189S-.072.566.005.3s.724-.428,1.4-.2S2.654.979,2.58,1.243Z" transform="translate(32.023 5.691)"/>
      <path id="Path_393" data-name="Path 393" class="cls-1" d="M.573,0c.3-.006.54.518.525,1.169S.824,2.352.519,2.358s-.54-.518-.525-1.169S.268,0,.573,0Z" transform="translate(17.155 0.953) rotate(-72.75)"/>
      <path id="Path_384" data-name="Path 384" class="cls-3" d="M7.863,5.7a1.463,1.463,0,0,0-.53-1.637A1.6,1.6,0,0,0,7.6,3.532a1.545,1.545,0,0,0-.23-1.361,1.1,1.1,0,0,0-1.143-.417A1.436,1.436,0,0,0,5.6.089,1.182,1.182,0,0,0,4.042.631,1.078,1.078,0,0,0,2.935.462a1.431,1.431,0,0,0-.806.944.467.467,0,0,1-.021.09l-.043.026A1.09,1.09,0,0,0,.7,1.338a1.542,1.542,0,0,0-.713,1.4A1.315,1.315,0,0,0,.821,3.959.95.95,0,0,0,1.015,4l0,.52,5.838,2.63-.029-.448A1.381,1.381,0,0,0,7.863,5.7Z" transform="translate(18.388 12.496)"/>
      <path id="Path_385" data-name="Path 385" class="cls-3" d="M7.974,4.378a1.243,1.243,0,0,1-1.419.772,1.6,1.6,0,0,1-.143.582,1.388,1.388,0,0,1-.729.727A1.076,1.076,0,0,1,4.744,6.4,1.235,1.235,0,0,1,4.3,5.966a1.219,1.219,0,0,1-1.505.711A1.386,1.386,0,0,1,2.02,5.105a1.088,1.088,0,0,1-.387-.129,1.478,1.478,0,0,1-.507-1.889L1.167,3l-.015-.051a1.055,1.055,0,0,1-.509-.138,1.487,1.487,0,0,1-.5-1.9A1.207,1.207,0,0,1,1.816.245a1.182,1.182,0,0,1,.163.11L2.31-.014,8.184,2.571l-.3.3A1.58,1.58,0,0,1,7.974,4.378Z" transform="translate(16.803 18.304)"/>
      <path id="Path_386" data-name="Path 386" class="cls-3" d="M1.58,1.133.033,6.511a1.608,1.608,0,0,0,.8,1.96h0a1.238,1.238,0,0,0,1.1-.091A1.662,1.662,0,0,0,2.673,7.4L4.22,2.019A1.8,1.8,0,0,0,4.127.768,1.345,1.345,0,0,0,3.273.024h0A1.444,1.444,0,0,0,1.58,1.133Z" transform="translate(19.737 14.13)"/>
      <path id="Path_387" data-name="Path 387" class="cls-1" d="M1.432,1.026.03,5.849A1.437,1.437,0,0,0,.751,7.6h0a1.11,1.11,0,0,0,.987-.082,1.491,1.491,0,0,0,.66-.88L3.792,1.818A1.616,1.616,0,0,0,3.711.69,1.21,1.21,0,0,0,2.942.018h0A1.3,1.3,0,0,0,1.432,1.026Z" transform="translate(19.94 14.562)"/>
    </g>
    <g id="Character" transform="translate(18832.654 -757.273)">
      <path id="Path_394" data-name="Path 394" class="cls-4" d="M5.229-.074C7.763-.213,9.461,5.637,9.02,12.99S6.166,26.418,3.631,26.556-.6,20.845-.16,13.492,2.694.064,5.229-.074Z" transform="translate(179.724 37.021) rotate(-64.626)"/>
      <path id="Path_395" data-name="Path 395" class="cls-4" d="M5.143-.094c2.39-.176,3.873,6.016,3.313,13.83S5.5,28.028,3.112,28.2-.761,22.188-.2,14.374,2.753.082,5.143-.094Z" transform="translate(238.059 49.696) rotate(-39.938)"/>
      <ellipse id="Ellipse_27" data-name="Ellipse 27" class="cls-4" cx="25.873" cy="29.998" rx="25.873" ry="29.998" transform="translate(196.854 22.614)"/>
      <rect id="Rectangle_67" data-name="Rectangle 67" class="cls-4" width="7.86" height="16.328" transform="translate(225.818 76.155)"/>
      <rect id="Rectangle_68" data-name="Rectangle 68" class="cls-4" width="7.86" height="16.328" transform="translate(210.098 76.155)"/>
      <ellipse id="Ellipse_28" data-name="Ellipse 28" class="cls-4" cx="6.55" cy="2.848" rx="6.55" ry="2.848" transform="translate(220.578 89.825)"/>
      <ellipse id="Ellipse_29" data-name="Ellipse 29" class="cls-4" cx="6.55" cy="2.848" rx="6.55" ry="2.848" transform="translate(204.857 89.445)"/>
      <path id="Path_339" data-name="Path 339" class="cls-5" d="M521.857,431.271c2.31-10.787,12.508-17.135,22.777-14.179s16.722,14.1,14.411,24.885S549.07,452.8,538.8,449.843,519.546,442.057,521.857,431.271Z" transform="translate(-307.253 -416.366)"/>
      <ellipse id="Ellipse_30" data-name="Ellipse 30" class="cls-5" cx="8.626" cy="10.001" rx="8.626" ry="10.001" transform="translate(210.233 36.281)"/>
      <ellipse id="Ellipse_31" data-name="Ellipse 31" class="cls-1" cx="2.875" cy="3.334" rx="2.875" ry="3.334" transform="translate(212.438 39.364)"/>
      <path id="Path_353" data-name="Path 353" class="cls-5" d="M278.115,568.2c0,1.6,3.554,4.761,7.5,4.761s7.642-4.506,7.642-6.106-3.7.311-7.642.311S278.115,566.6,278.115,568.2Z" transform="translate(-59.742 -500.028)"/>
    </g>
    <g id="PiggyBank" transform="translate(18809.439 -812.882)">
      <path id="Path_61" data-name="Path 61" class="cls-6" d="M537.885,669.02a9.82,9.82,0,0,0-5.784-4.644,24.374,24.374,0,0,0-6.444-.44l-27.2.243A4.911,4.911,0,0,0,494,669.346c.107,2.781,1.958,5.188,4.456,5.166l23.907-.214c1.879-.017,3.759-.056,5.637-.049.422,0,.842.027,1.263.033.1,0,.176,0,.228,0l.041.014c.22.07.445.118.667.185-.077,0,.143.162.254.217.015.035.048.1.1.192.076.165.3.665.309.649a25.923,25.923,0,0,1,.832,3.033,19.47,19.47,0,0,1,.706,4.886c.094,2.7,1.982,5.294,4.456,5.166a4.922,4.922,0,0,0,4.456-5.166C541.14,678.581,540.4,673.107,537.885,669.02Z" transform="translate(-446.378 -538.753)"/>
      <path id="Path_62" data-name="Path 62" class="cls-6" d="M435.134,525.955c-.511-3.59-1.012-7.183-1.533-10.771-.529-3.64-1.608-6.973-4.051-9.363-.653-.638-1.33-1.234-2.009-1.828-.239-.209-.478-.418-.714-.631l-.035-.032-.1-.1c-1.018-1-2-2.043-2.94-3.152Q422.5,498.6,421.365,497q-.285-.4-.562-.808l-.316-.471c-.1-.168-.3-.47-.329-.523q-.324-.531-.637-1.072a53.349,53.349,0,0,1-3.672-7.786q-.152-.4-.3-.813l-.1-.332c-.206-.658-.412-1.315-.6-1.981q-.6-2.122-1.034-4.306-.214-1.078-.385-2.168-.088-.56-.165-1.123c-.008-.062-.059-.467-.088-.7s-.062-.637-.068-.7q-.049-.567-.087-1.135-.085-1.279-.116-2.562-.051-2.28.07-4.559.069-1.281.193-2.556l.012-.131.017-.135c.06-.47.123-.939.194-1.406q.4-2.664,1.041-5.267.3-1.23.658-2.439.158-.537.327-1.07c-.007.023.329-.974.334-1.007,1.335-3.658,3.519-6.992,3.522-11.148,0-2.813-2.051-5.508-4.456-5.378-2.492.109-4.462,2.487-4.456,5.378,0,.063,0,.117,0,.169l-.058.225c-.26.656-.579,1.279-.865,1.919-.783,1.751-1.451,3.56-2.085,5.395a57.932,57.932,0,0,0-2.375,9.243,68.019,68.019,0,0,0-.27,21c1.728,12.209,7.424,23.9,15.345,31.751.687.682,1.391,1.34,2.1,1.986.294.267.591.529.889.79.141.123.724.657.468.4a3.212,3.212,0,0,1,.926,1.224l.086.391c.1.454.195.906.274,1.367.689,4.02,1.169,8.108,1.744,12.154.4,2.78,3.348,4.59,5.481,3.756C434.505,531.6,435.558,528.934,435.134,525.955Z" transform="translate(-381.461 -384.03)"/>
      <path id="Path_63" data-name="Path 63" class="cls-1" d="M463.021,476c-3.9.012-7.065-3.635-7.084-8.152v-5.893c-5.321.691-23.543.531-28.766-.442v6.1c0,4.536-3.172,8.214-7.084,8.214S413,472.153,413,467.616V455.64c-14.405-9.279-23.354-26.867-23.392-45.973,0-16.089,6.289-31.1,17.254-41.177a42.37,42.37,0,0,1,24.874-11.356c1.233-.112,2.473-.169,3.687-.169,4.275,0,23.564.766,28.4,2.38l11.035-12.7a1.045,1.045,0,0,1,1.267-.293,1.339,1.339,0,0,1,.72,1.242v2.019L479,347.15a1.043,1.043,0,0,1,1.266-.293,1.339,1.339,0,0,1,.721,1.242v22.557c11.246,11.755,16.686,29.244,14.5,46.615s-11.708,32.33-25.381,39.871v10.709C470.086,472.369,466.917,476.016,463.021,476Zm-6.527-14.778v6.625c0,4.18,2.922,7.568,6.527,7.568s6.528-3.388,6.528-7.568V456.735l.159-.088a48.065,48.065,0,0,0,18.527-18.785c12.006-21.428,8.73-49.808-7.714-66.821l-.092-.1V348.1a.687.687,0,0,0-.374-.644.54.54,0,0,0-.663.153l-3.1,3.558V347.6a.687.687,0,0,0-.374-.644.542.542,0,0,0-.664.154l-11.272,12.968-.16-.058c-4.5-1.633-24.091-2.407-28.4-2.407-1.2,0-2.425.056-3.643.167A41.855,41.855,0,0,0,407.21,369c-10.831,9.957-17.043,24.781-17.043,40.671.038,18.94,8.94,36.363,23.248,45.5l.144.092v12.356c0,4.18,2.922,7.568,6.527,7.568s6.528-3.388,6.528-7.568v-6.873l.33.072c4.694,1.024,24.459,1.185,29.236.459Z" transform="translate(-371.063 -323.652)"/>
      <path id="Path_70" data-name="Path 70" class="cls-1" d="M343.477,436.094a25.166,25.166,0,0,1-10.894-4.776,27.851,27.851,0,0,1-4.5-4.271,16.286,16.286,0,0,1-3.3-5.514,9.383,9.383,0,0,1,.092-6.06,7.4,7.4,0,0,1,3.667-4.238,6.112,6.112,0,0,1,5.306-.009,4.967,4.967,0,0,1,1.939,1.81,3.969,3.969,0,0,1,.5,1.213,2.77,2.77,0,0,1-1.3,3.061,6.05,6.05,0,0,1-2.27.8,2.78,2.78,0,0,1-2.581-.5,1.539,1.539,0,0,1-.3-.52,1.156,1.156,0,0,1-.048-.471c-.009.07.039-.153.036-.144-.01.033-.054.113.008-.01a1.12,1.12,0,0,1,.065-.117c-.021.032-.068.085.015-.006a.54.54,0,0,1,.255-.182c.039-.013.078-.023.116-.036.1-.031-.1,0,0,0,.039,0,.078,0,.117,0,.1-.005-.1-.031,0,0,.037.011.073.021.109.034.079.029-.056-.067,0,0s-.066-.081.005,0a1.458,1.458,0,0,1,.1.127.6.6,0,0,0,.923,0,.866.866,0,0,0,0-1.07,1.608,1.608,0,0,0-2.566.085,2.738,2.738,0,0,0,.306,3.448,3.684,3.684,0,0,0,3.386.888,7.453,7.453,0,0,0,2.86-.937,4.454,4.454,0,0,0,1.956-2.45,4.858,4.858,0,0,0-.294-3.477,6.385,6.385,0,0,0-5.314-3.625,7.6,7.6,0,0,0-6.076,2.313,10.383,10.383,0,0,0-2.754,6.482,12.35,12.35,0,0,0,1.938,7.172,25.983,25.983,0,0,0,4.673,5.6,27.025,27.025,0,0,0,11.922,6.519q.778.186,1.564.319a.668.668,0,0,0,.8-.529.783.783,0,0,0-.456-.931Z" transform="translate(-323.008 -366.218)"/>
      <path id="Path_71" data-name="Path 71" class="cls-7" d="M566.442,390.742q-8.539-.14-17.024.5c-1.933.146-3.606.939-3.606,2.27,0,1.113,1.66,2.418,3.606,2.27q8.481-.642,17.024-.5C571.085,395.359,571.082,390.817,566.442,390.742Z" transform="translate(-483.767 -353.76)"/>
      <path id="Path_72" data-name="Path 72" class="cls-1" d="M550.643,394.342c-.615,0-15.067-.027-15.067-2.341s14.452-2.341,15.067-2.341,15.067.027,15.067,2.341S551.258,394.342,550.643,394.342ZM536.141,392c.4.7,5.708,1.7,14.5,1.7s14.106-.994,14.5-1.7c-.4-.7-5.708-1.7-14.5-1.7s-14.107.994-14.5,1.7Z" transform="translate(-476.382 -353.044)"/>
      <path id="Path_73" data-name="Path 73" class="cls-1" d="M754.2,512.5c3.2-.1,7.181-.232,10.248-2.83a9.629,9.629,0,0,0,3.1-6.814,6.641,6.641,0,0,0-1.8-5.041c-1.6-1.57-3.942-1.938-6.463-1.079L761.89,474.6l-1.917-.3L756.9,500.317l1.6-.852c1.856-.987,4.4-1.49,5.988.062a4.288,4.288,0,0,1,1.116,3.249,7.281,7.281,0,0,1-2.3,5.08c-2.387,2.022-5.561,2.282-9.16,2.4Z" transform="translate(-634.083 -410.355)"/>
      <rect id="Rectangle_29" data-name="Rectangle 29" class="cls-1" width="10.424" height="2.244" transform="translate(104.388 66.156)"/>
    </g>
    <g id="Coin" transform="translate(18993.525 -761.491)">
      <path id="Path_66" data-name="Path 66" class="cls-1" d="M531.283,233.42c-10.531,0-19.157,9.7-19.485,21.907-.006.229-.008.462-.008.694,0,12.482,8.727,22.6,19.493,22.6s19.493-10.119,19.493-22.6S542.049,233.42,531.283,233.42Zm0,44.556c-10.454-.013-18.925-9.835-18.936-21.955q0-.45.017-.891c.421-12,9.079-21.38,19.433-21.055s18.561,10.236,18.421,22.244S541.641,277.977,531.283,277.976Z" transform="translate(-511.79 -233.42)"/>
      <path id="Path_67" data-name="Path 67" class="cls-6" d="M555.65,263.469c0,10.521-7.356,19.049-16.43,19.049s-16.43-8.529-16.43-19.049c0-.6.025-1.2.072-1.785.822-10.128,8.364-17.72,17.128-17.243S555.65,253.3,555.65,263.469Z" transform="translate(-519.727 -240.868)"/>
      <path id="Path_68" data-name="Path 68" class="cls-8" d="M572.4,281.033a4.07,4.07,0,0,0-1.523-1.4,13.412,13.412,0,0,0-2.289-.872v-5.185a6.147,6.147,0,0,1,3.255,1.721l.908-2.244a5.941,5.941,0,0,0-1.771-1.269,7.759,7.759,0,0,0-2.247-.668V268.49h-2.1v2.654a5.242,5.242,0,0,0-2.3.894,4.918,4.918,0,0,0-2.111,4.123,4.494,4.494,0,0,0,.638,2.518,4.2,4.2,0,0,0,1.587,1.459,13.313,13.313,0,0,0,2.328.894V286a6.464,6.464,0,0,1-3.874-1.792l-.908,2.247a6.668,6.668,0,0,0,2.072,1.362,8.394,8.394,0,0,0,2.565.62v2.605h2.1v-2.654a5.144,5.144,0,0,0,3.122-1.66,4.763,4.763,0,0,0,1.164-3.261A4.348,4.348,0,0,0,572.4,281.033Zm-5.625-2.819a3.9,3.9,0,0,1-1.4-.872,1.857,1.857,0,0,1-.5-1.35,2.379,2.379,0,0,1,.507-1.553,2.465,2.465,0,0,1,1.39-.836Zm3.133,6.871a2.3,2.3,0,0,1-1.32.8v-4.275a3.519,3.519,0,0,1,1.32.765,1.62,1.62,0,0,1,.454,1.195,2.424,2.424,0,0,1-.454,1.518Z" transform="translate(-548.011 -257.167)"/>
    </g>
    <g id="Bouble4" transform="translate(18950.564 -677.684)">
      <ellipse id="Ellipse_63" data-name="Ellipse 63" class="cls-1" cx="3.032" cy="3.515" rx="3.032" ry="3.515" transform="translate(0 0)"/>
      <ellipse id="Ellipse_64" data-name="Ellipse 64" class="cls-5" cx="0.689" cy="1.758" rx="0.689" ry="1.758" transform="translate(0.276 1.758)"/>
    </g>
    <g id="Bouble3" transform="translate(18951.871 -711.857)">
      <ellipse id="Ellipse_63-2" data-name="Ellipse 63" class="cls-1" cx="5.784" cy="6.706" rx="5.784" ry="6.706" transform="translate(0)"/>
      <ellipse id="Ellipse_64-2" data-name="Ellipse 64" class="cls-5" cx="1.314" cy="3.353" rx="1.314" ry="3.353" transform="translate(0.526 3.353)"/>
    </g>
    <g id="Bouble2" transform="translate(18966.457 -735.329)">
      <ellipse id="Ellipse_63-3" data-name="Ellipse 63" class="cls-1" cx="7.508" cy="8.705" rx="7.508" ry="8.705" transform="translate(0)"/>
      <ellipse id="Ellipse_64-3" data-name="Ellipse 64" class="cls-5" cx="1.706" cy="4.353" rx="1.706" ry="4.353" transform="translate(0.683 4.353)"/>
    </g>
    <g id="Bouble1" transform="translate(18945.803 -815.748)">
      <ellipse id="Ellipse_63-4" data-name="Ellipse 63" class="cls-1" cx="10.824" cy="12.549" rx="10.824" ry="12.549" transform="translate(0)"/>
      <ellipse id="Ellipse_64-4" data-name="Ellipse 64" class="cls-5" cx="2.46" cy="6.275" rx="2.46" ry="6.275" transform="translate(0.984 6.275)"/>
    </g>
    <g id="BoubleWhite3" transform="translate(18971.953 -695.71)">
      <path id="Path_369" data-name="Path 369" class="cls-5" d="M4.156,0c2.3,0,4.156,2.157,4.156,4.819S6.451,9.637,4.156,9.637,0,7.48,0,4.819,1.861,0,4.156,0Z" transform="translate(0 0.019)"/>
      <path id="Path_396" data-name="Path 396" class="cls-8" d="M2.243-.034c1.211-.087,2.16.31,2.12.886S3.311,1.966,2.1,2.053s-2.16-.31-2.12-.886S1.033.053,2.243-.034Z" transform="matrix(0.81, -0.587, 0.587, 0.81, 0.142, 2.634)"/>
    </g>
    <g id="BoubleWhite2" transform="translate(18947.418 -747.667)">
      <path id="Path_369-2" data-name="Path 369" class="cls-5" d="M5.767,0c3.185,0,5.767,2.994,5.767,6.687s-2.582,6.687-5.767,6.687S0,10.38,0,6.687,2.582,0,5.767,0Z" transform="translate(0 0.027)"/>
      <path id="Path_397" data-name="Path 397" class="cls-8" d="M3.113-.047c1.68-.121,3,.43,2.943,1.229S4.595,2.728,2.915,2.849s-3-.43-2.943-1.229S1.433.074,3.113-.047Z" transform="matrix(0.81, -0.587, 0.587, 0.81, 0.197, 3.655)"/>
    </g>
    <g id="BoubleWhite1" transform="translate(18962.273 -777.349)">
      <path id="Path_369-3" data-name="Path 369" class="cls-5" d="M8.6,0c4.748,0,8.6,4.463,8.6,9.968s-3.849,9.968-8.6,9.968S0,15.473,0,9.968,3.849,0,8.6,0Z" transform="translate(0 0.04)"/>
      <path id="Path_398" data-name="Path 398" class="cls-8" d="M4.641-.07c2.5-.18,4.468.641,4.387,1.833s-2.178,2.3-4.683,2.484S-.123,3.606-.042,2.414,2.136.11,4.641-.07Z" transform="matrix(0.81, -0.587, 0.587, 0.81, 0.293, 5.449)"/>
    </g>
  </g>
</svg>
