<svg xmlns="http://www.w3.org/2000/svg" width="64.824" height="69.936" viewBox="0 0 64.824 69.936">
    <g transform="translate(0)">
        <path  d="M48.447,65.929H30.206a8.992,8.992,0,0,1-8.98-8.98V12.987a8.992,8.992,0,0,1,8.98-8.98H48.744a2,2,0,1,0,0-4.007H30.206A13,13,0,0,0,17.219,12.987V56.949A13,13,0,0,0,30.206,69.936H48.447a2,2,0,1,0,0-4.007Z" transform="translate(-17.219)"/>
        <path  d="M169.424,149.65l-12.735-12.735a2,2,0,0,0-2.835,2.835l9.321,9.321H122.523a2,2,0,0,0,0,4.007h40.653l-9.321,9.321a2.011,2.011,0,0,0,1.41,3.429,1.955,1.955,0,0,0,1.41-.594L169.409,152.5A2,2,0,0,0,169.424,149.65Z" transform="translate(-105.188 -116.092)"/>
    </g>
</svg>