<svg xmlns="http://www.w3.org/2000/svg" width="220.422" height="152.657" viewBox="0 0 220.422 152.657"><path d="M689.128,465.049c0,13.815-8.213,18.639-18.344,18.639s-18.344-4.824-18.344-18.639,18.344-31.39,18.344-31.39S689.128,451.234,689.128,465.049Z" transform="translate(-531.526 -360.665)" fill="#6c63ff"/><path d="M650.509,394.014l7.819-14.3-7.789,12.49.084-5.2,5.389-10.349-5.366,8.973.152-9.35,5.77-8.239-5.746,6.769.095-17.145-.571,21.725-5.843-8.944,5.773,10.777-.547,10.442-.016-.277-6.763-9.45,6.743,10.429-.068,1.306-.012.02.006.107-1.387,13.935h1.853l.222-1.126,6.726-10.4-6.709,9.375Z" transform="translate(-511.731 -284.667)" fill="#3f3d56"/><path d="M866.7,135.962c0,26.39-15.689,35.605-35.042,35.605s-35.042-9.215-35.042-35.605S831.661,76,831.661,76,866.7,109.572,866.7,135.962Z" transform="translate(-646.28 -75.999)" fill="#f2f2f2"/><path d="M847.168,91.531l.359-22.086,14.936-27.324L847.583,65.98l.161-9.931,10.293-19.769L847.787,53.421h0l.29-17.861L859.1,19.822l-10.977,12.93L848.3,0l-1.139,43.357.094-1.789L836.052,24.414,847.078,45,846.035,64.95,846,64.42,833.084,46.368l12.88,19.922-.13,2.495-.024.038.011.2-2.649,50.61h3.539l.425-26.141,12.849-19.874Z" transform="translate(-663.063 0)" fill="#3f3d56"/><path d="M278.961,634.287c0,7.877-51.1,37.438-110.829,37.438s-108.156-15.3-108.156-23.176,47.234,1.486,106.967,1.486S278.961,626.41,278.961,634.287Z" transform="translate(-59.976 -519.068)" fill="#3f3d56"/><path d="M278.961,634.287c0,7.877-51.1,37.438-110.829,37.438s-108.156-15.3-108.156-23.176,47.234,1.486,106.967,1.486S278.961,626.41,278.961,634.287Z" transform="translate(-59.976 -519.068)" opacity="0.1"/><path d="M278.961,631.511c0,7.877-51.1,28.525-110.829,28.525S59.976,653.65,59.976,645.774s47.234-7.428,106.967-7.428S278.961,623.635,278.961,631.511Z" transform="translate(-59.976 -516.293)" fill="#3f3d56"/><ellipse cx="45.928" cy="3.552" rx="45.928" ry="3.552" transform="translate(63.437 127.425)" opacity="0.1"/><path d="M414.175,368.965s13.446.249,10.956,2.614-11.827,0-11.827,0Z" transform="translate(-341.194 -309.175)" fill="#ffbbab"/><path d="M267.7,227.826s5.429-.969,7.316,3.413,5.764,16.881,5.764,16.881,10.374,6.867,12.261,6.641,5.113.235,4.521,2.293-.329,4.393-1.691,4.679-3.529-2.445-5.187-1.129-16.435-3.489-17.384-4.485-8.833-22.552-8.833-22.552S264.785,227.756,267.7,227.826Z" transform="translate(-222.735 -196.768)" fill="#6c63ff"/><path d="M247.761,605.607l.622,5.229-5.229,1.37-2.988-1.37v-4.606Z" transform="translate(-191.152 -482.011)" fill="#ffbbab"/><path d="M178.827,622.078l.622,5.229-5.229,1.37-2.988-1.37V622.7Z" transform="translate(-136.287 -495.12)" fill="#ffbbab"/><path d="M253.046,396.26l2.365,8.59,3.486,17.43a17.165,17.165,0,0,1-1,9.337c-1.992,5.1-5.6,21.787-4.855,22.783s-8.466,1.743-8.341.747,1.369-14.691,1.369-14.691,1.743-12.076,2.615-13.57-3.984-5.229-3.984-5.229-1.245,14.317-3.112,15.562-1.619,20.542-2.49,20.791-7.221,1.245-7.968,0,0-22.036,0-22.036,4.233-15.811,3.361-18.052-.373-11.827-.373-11.827-3.237-7.345-1.494-11.2Z" transform="translate(-195.939 -329.809)" fill="#2f2e41"/><path d="M286.5,143.515s-5.229,6.474-4.98,9.337-8.217-5.229-8.217-5.229,6.1-8.217,6.1-9.96S286.5,143.515,286.5,143.515Z" transform="translate(-229.765 -124.872)" fill="#ffbbab"/><path d="M8.217,0A8.217,8.217,0,1,1,0,8.217,8.217,8.217,0,0,1,8.217,0Z" transform="translate(48.455 4.637)" fill="#ffbbab"/><path d="M233.027,219.724a15.09,15.09,0,0,0-.768,4.284c.042.858,2.319,1.421,5.468,1.789,2.92.342,6.589.517,9.924.606,3.5.095,6.633.095,8.138.095,4.482,0,.871-2.863-.871-4.233s-1.369-20.791-1.245-23.281-1.121-9.711-1.121-11.08-2.929-4.944-2.929-4.944-.681,1.956-3.42-.659a14.557,14.557,0,0,0-6.349-3.361c-2.739,1-7.345,11.952-7.594,13.819-.1.758-.017,4.641.152,9.075.245,6.48.674,14.141.969,14.954A5.925,5.925,0,0,1,233.027,219.724Z" transform="translate(-197.063 -157.931)" fill="#6c63ff"/><path d="M227.306,338.413l.871,3.113-3.361,3.486-1.12-4.856Z" transform="translate(-178.043 -269.348)" fill="#ffbbab"/><path d="M295.5,691.778s2.615,2.988,4.607,1,1.867-3.237,2.241-3.237,5.976,4.98,5.976,4.98,9.586,2.241,4.357,3.859-20.044.5-20.044,0-.373-7.1,1-7.1Z" transform="translate(-245.12 -564.322)" fill="#2f2e41"/><path d="M226.57,708.248s2.614,2.988,4.606,1,1.867-3.237,2.241-3.237,5.976,4.98,5.976,4.98,9.586,2.241,4.358,3.86-20.044.5-20.044,0-.373-7.1,1-7.1Z" transform="translate(-190.255 -577.431)" fill="#2f2e41"/><path d="M279.88,97.794c-.265.171-.611.345-.877.174a39.724,39.724,0,0,1-2.2-7.633,3.74,3.74,0,0,1,.225-2.718,6.671,6.671,0,0,0,.638-.9,6.073,6.073,0,0,0,.15-1.653,3.273,3.273,0,0,1,2.348-2.355,30.907,30.907,0,0,0,3.342-1.026,25.4,25.4,0,0,0,2.715-1.909,3.494,3.494,0,0,1,3.132-.618c.909.367,1.475,1.293,2.335,1.765a6.81,6.81,0,0,0,1.911.547,12.229,12.229,0,0,1,4.967,2.308,3.608,3.608,0,0,1,.9.932c1.1,1.815-.872,4.284,0,6.221l-1.883-1.486a6.557,6.557,0,0,0-1.682-1.069,2.216,2.216,0,0,0-1.929.087,4,4,0,0,0-1.289,2.42c-.278.894-.892,1.885-1.828,1.862-1.273-.031-1.718-1.807-2.86-2.369a2.2,2.2,0,0,0-2.316.409,4.749,4.749,0,0,0-1.295,2.092,5.7,5.7,0,0,1-.648,1.462c-.342.467-.779.5-1.144.853A17.986,17.986,0,0,1,279.88,97.794Z" transform="translate(-232.434 -78.381)" fill="#2f2e41"/><path d="M233.789,251.411a58.014,58.014,0,0,0,4.7,6.073c2.919.342,6.588.517,9.924.606a7.862,7.862,0,0,0-2.195-2.022c-1.618-1-5.478-12.823-5.478-12.823s4.731-12.2,5.976-16.807-3.61-7.221-3.61-7.221c-2.241-1.868-6.1,2.49-6.1,2.49s-1.97,5.941-3.832,11.814c.245,6.48.674,14.141.969,14.954A5.924,5.924,0,0,1,233.789,251.411Z" transform="translate(-197.826 -189.618)" opacity="0.1"/><path d="M228.538,214.337s4.855,2.615,3.61,7.221-5.976,16.807-5.976,16.807,3.859,11.827,5.478,12.823,3.859,3.361,2.117,4.606-2.988,3.237-4.233,2.615-1.245-4.108-3.361-4.108-10.707-12.948-10.831-14.317,7.1-23.157,7.1-23.157S226.3,212.47,228.538,214.337Z" transform="translate(-183.632 -185.734)" fill="#6c63ff"/><path d="M498.873,372.453l-1.4-1.4a4.356,4.356,0,0,0-6.161,0l-27.167,27.167-27.167-27.167a4.356,4.356,0,0,0-6.161,0l-1.4,1.4a4.356,4.356,0,0,0,0,6.161l27.167,27.167-27.167,27.167a4.356,4.356,0,0,0,0,6.161l1.4,1.4a4.356,4.356,0,0,0,6.161,0l27.167-27.167,27.167,27.167a4.356,4.356,0,0,0,6.161,0l1.4-1.4a4.356,4.356,0,0,0,0-6.161L471.706,405.78l27.167-27.167a4.356,4.356,0,0,0,0-6.161Z" transform="translate(-353.004 -309.82)" fill="#ff6584"/><path d="M429.643,582.753,456,556.392l-.254-.254-25.137,25.137A4.339,4.339,0,0,0,429.643,582.753Z" transform="translate(-354.199 -458.149)" opacity="0.1"/><path d="M430.237,373.336a4.356,4.356,0,0,1,6.161,0L463.564,400.5l27.167-27.167a4.356,4.356,0,0,1,6.161,0l1.4,1.4a4.356,4.356,0,0,1,.969,4.684l.807-.807a4.356,4.356,0,0,0,0-6.161l-1.4-1.4a4.356,4.356,0,0,0-6.161,0L465.34,398.219l-27.167-27.167a4.356,4.356,0,0,0-6.161,0l-1.4,1.4a4.338,4.338,0,0,0-.969,1.477Z" transform="translate(-354.199 -309.82)" opacity="0.1"/><path d="M634.933,547.436l-2.03,2.03,27.167,27.167a4.356,4.356,0,0,1,.969,4.684l.807-.807a4.356,4.356,0,0,0,0-6.161Z" transform="translate(-515.977 -451.222)" opacity="0.1"/><path d="M96.143,534.518c0,11.474-6.821,15.48-15.235,15.48s-15.235-4.006-15.235-15.48,15.235-26.071,15.235-26.071S96.143,523.044,96.143,534.518Z" transform="translate(-64.509 -420.19)" fill="#6c63ff"/><path d="M53.9,462.641l6.494-11.88-6.469,10.374.07-4.318,4.475-8.6-4.457,7.452.126-7.766,4.792-6.843-4.773,5.622.079-14.24-.474,18.043-4.853-7.428,4.794,8.951-.454,8.673-.013-.23-5.617-7.849,5.6,8.662-.057,1.085-.01.016,0,.089-1.152,11.574H53.55l.185-.935,5.586-8.641-5.572,7.786Z" transform="translate(-37.905 -344.191)" fill="#3f3d56"/></svg>