<svg xmlns="http://www.w3.org/2000/svg" width="55.228" height="55.237" viewBox="0 0 55.228 55.237"><g transform="translate(-0.042)"><g transform="translate(3.752 2.956)"><path d="M70.317,33.982,68.138,27.93a.809.809,0,0,0-1.255-.367l-4.916,3.786a.809.809,0,0,0,.987,1.282l3.086-2.377A40.149,40.149,0,0,1,48.2,52.4a42.075,42.075,0,0,1-13.088,5.148.809.809,0,1,0,.26,1.6,42.833,42.833,0,0,0,13.6-5.321,42.5,42.5,0,0,0,10.908-9.171,41.837,41.837,0,0,0,7.632-13.69l1.285,3.568a.809.809,0,1,0,1.522-.548Z" transform="translate(-34.433 -27.395)" fill="#fff"/></g><g transform="translate(0.042)"><g transform="translate(0)"><path d="M54.461,53.619H51.448V23.942a.809.809,0,1,0-1.618,0V53.619H42.605V8.369H49.83V18.3a.809.809,0,1,0,1.618,0V8.1A1.35,1.35,0,0,0,50.1,6.751H42.335A1.35,1.35,0,0,0,40.987,8.1v45.52H39.074v-25.4a1.35,1.35,0,0,0-1.348-1.348H29.961a1.35,1.35,0,0,0-1.348,1.348v25.4H26.7V33.987a1.35,1.35,0,0,0-1.348-1.348H17.587a1.35,1.35,0,0,0-1.348,1.348V53.619H14.326V42.347A1.35,1.35,0,0,0,12.977,41H5.212a1.35,1.35,0,0,0-1.348,1.348V44.94a.809.809,0,1,0,1.618,0V42.617h7.225v11H5.482V50.711a.809.809,0,1,0-1.618,0v2.908H1.66V.809a.809.809,0,1,0-1.618,0V54.428a.809.809,0,0,0,.809.809h53.61a.789.789,0,0,0,.809-.785A.83.83,0,0,0,54.461,53.619Zm-29.38,0H17.856V34.256h7.225Zm12.374,0H30.231V28.486h7.225Z" transform="translate(-0.042)" fill="#fff"/></g></g></g></svg>