<svg xmlns="http://www.w3.org/2000/svg" width="72.57" height="72.57" viewBox="0 0 72.57 72.57"><defs><style>.a{fill:#fff;}</style></defs><g transform="translate(0 24.19)"><path class="a" d="M44.752,178.143h-1.33a1.19,1.19,0,0,1-1.12-.781c-.148-.387-.306-.766-.477-1.141a1.193,1.193,0,0,1,.242-1.35l.948-.949a3.637,3.637,0,0,0-.006-5.127l-3.418-3.418a3.637,3.637,0,0,0-5.128,0l-.948.947a1.2,1.2,0,0,1-1.35.242c-.375-.171-.754-.329-1.142-.484a1.189,1.189,0,0,1-.785-1.122v-1.33A3.628,3.628,0,0,0,26.609,160H21.771a3.628,3.628,0,0,0-3.629,3.629v1.33a1.19,1.19,0,0,1-.781,1.12c-.387.148-.766.306-1.141.477a1.2,1.2,0,0,1-1.35-.242l-.949-.948a3.637,3.637,0,0,0-5.127,0l-3.418,3.429a3.637,3.637,0,0,0,0,5.128l.947.948a1.193,1.193,0,0,1,.242,1.35c-.171.375-.329.754-.478,1.142a1.189,1.189,0,0,1-1.128.78H3.629A3.628,3.628,0,0,0,0,181.771v4.838a3.628,3.628,0,0,0,3.629,3.629h1.33a1.19,1.19,0,0,1,1.12.781c.148.387.306.766.477,1.141a1.193,1.193,0,0,1-.242,1.35l-.948.949a3.637,3.637,0,0,0,0,5.127L8.783,203a3.637,3.637,0,0,0,5.128,0l.948-.947a1.2,1.2,0,0,1,1.35-.242c.375.171.754.329,1.142.484a1.189,1.189,0,0,1,.791,1.122v1.33a3.628,3.628,0,0,0,3.629,3.629h4.838a3.628,3.628,0,0,0,3.629-3.629v-1.33a1.19,1.19,0,0,1,.781-1.12c.387-.148.766-.306,1.141-.477a1.2,1.2,0,0,1,1.35.242l.949.948a3.638,3.638,0,0,0,5.127-.006L43,199.591a3.637,3.637,0,0,0,0-5.128l-.947-.948a1.193,1.193,0,0,1-.242-1.35c.171-.375.329-.754.484-1.142a1.189,1.189,0,0,1,1.122-.785h1.33a3.628,3.628,0,0,0,3.629-3.629v-4.838A3.628,3.628,0,0,0,44.752,178.143Zm1.21,8.467a1.21,1.21,0,0,1-1.21,1.21h-1.33a3.641,3.641,0,0,0-3.387,2.339q-.192.508-.416,1a3.639,3.639,0,0,0,.726,4.059l.946.947a1.209,1.209,0,0,1,0,1.711h0l-3.418,3.418a1.21,1.21,0,0,1-1.71,0l-.948-.947a3.636,3.636,0,0,0-4.059-.726c-.328.149-.662.288-1,.416a3.64,3.64,0,0,0-2.338,3.384v1.33a1.21,1.21,0,0,1-1.21,1.21H21.771a1.21,1.21,0,0,1-1.21-1.21v-1.33a3.641,3.641,0,0,0-2.339-3.387q-.508-.192-1-.416a3.641,3.641,0,0,0-4.059.726l-.947.946a1.209,1.209,0,0,1-1.711,0h0l-3.418-3.414a1.21,1.21,0,0,1,0-1.71l.947-.948a3.639,3.639,0,0,0,.726-4.059c-.149-.328-.288-.662-.416-1a3.639,3.639,0,0,0-3.384-2.342H3.629a1.21,1.21,0,0,1-1.21-1.21v-4.838a1.21,1.21,0,0,1,1.21-1.209h1.33a3.641,3.641,0,0,0,3.387-2.339q.192-.508.416-1a3.64,3.64,0,0,0-.726-4.059l-.951-.947a1.209,1.209,0,0,1,0-1.711h0l3.418-3.418a1.21,1.21,0,0,1,1.71,0l.948.947a3.636,3.636,0,0,0,4.059.726c.328-.149.662-.288,1-.416a3.639,3.639,0,0,0,2.343-3.384v-1.33a1.21,1.21,0,0,1,1.21-1.21h4.838a1.21,1.21,0,0,1,1.21,1.21v1.33a3.641,3.641,0,0,0,2.339,3.387q.508.192,1,.416a3.636,3.636,0,0,0,4.059-.726l.947-.946a1.217,1.217,0,0,1,1.711,0l3.418,3.418a1.21,1.21,0,0,1,0,1.71l-.947.948a3.64,3.64,0,0,0-.726,4.059c.149.328.288.662.416,1a3.64,3.64,0,0,0,3.384,2.338h1.33a1.21,1.21,0,0,1,1.21,1.209v4.838Z" transform="translate(0 -160)"/></g><g transform="translate(13.298 37.495)"><path class="a" d="M109.712,258.4c-.012-.29-.033-.579-.068-.867-.039-.31-.085-.617-.149-.918-.042-.2-.1-.392-.151-.588q-.1-.374-.229-.737c-.059-.168-.121-.335-.184-.5a10.787,10.787,0,0,0-.533-1.132c-.016-.028-.025-.058-.041-.086a10.733,10.733,0,0,0-1.089-1.586c-.035-.044-.075-.085-.111-.127-.167-.2-.339-.388-.519-.571-.094-.1-.194-.19-.293-.284-.121-.113-.242-.224-.363-.33q-.22-.191-.449-.37l-.2-.148A10.808,10.808,0,0,0,98.85,248c-.121,0-.242.018-.363.023-.258.007-.516.022-.776.048-.137.015-.275.03-.411.05a11.082,11.082,0,0,0-1.172.219,10.892,10.892,0,0,0,.008,21.093.28.28,0,0,1,.06.011,11.526,11.526,0,0,0,1.268.242c.282.035.564.042.847.056.189.01.363.037.56.037.345,0,.7-.023,1.068-.059a1.2,1.2,0,0,0,.121-.016c.294-.033.591-.076.9-.137.121-.023.233-.053.35-.08.213-.05.425-.1.642-.166.169-.051.334-.11.5-.168s.337-.121.509-.186.316-.14.472-.213c.2-.093.405-.185.6-.294h.007a14.315,14.315,0,0,0,3.1-2.239,3.808,3.808,0,0,0,.648-.793,12.911,12.911,0,0,0,1.822-4.971c.034-.233.064-.467.082-.705.017-.219.029-.437.034-.654,0-.069.01-.134.01-.2C109.736,258.723,109.719,258.566,109.712,258.4Zm-2.411.792c0,.1-.008.2-.014.3-.022.293-.059.585-.109.879a8.484,8.484,0,0,1-4.25,5.927c-.15.079-.3.152-.445.22l-.1.048a8.737,8.737,0,0,1-2.206.668c-.053.008-.108.018-.162.025-.151.022-.3.04-.448.053-.195.017-.391.027-.59.03h-.253a8.488,8.488,0,0,1-.856-.053l-.145-.017a8.948,8.948,0,0,1-.988-.186,8.466,8.466,0,0,1-.008-16.4h0a8.758,8.758,0,0,1,2.125-.266,8.353,8.353,0,0,1,1.034.07c.092.011.183.028.273.041.261.041.52.093.775.158.083.022.167.041.249.064a8.541,8.541,0,0,1,1.844.777c.093.054.184.111.276.168.191.121.376.242.559.38.1.071.2.142.291.218a8.716,8.716,0,0,1,.681.6c.086.087.164.183.248.273.139.151.275.306.4.469.09.113.175.229.26.346.121.174.242.356.351.539.06.1.121.2.183.3a8.308,8.308,0,0,1,.416.887c.048.121.09.242.133.363.079.223.146.447.206.675.03.121.064.229.09.346a8.529,8.529,0,0,1,.154.991c.007.088.007.178.013.266C107.307,258.634,107.312,258.913,107.3,259.194Z" transform="translate(-87.959 -248)"/></g><g transform="translate(13.193)"><path class="a" d="M143.01,25.4h-3.8a1.181,1.181,0,0,1-1.127-.793,25.192,25.192,0,0,0-1.358-3.279,1.184,1.184,0,0,1,.232-1.366l2.7-2.7a3.628,3.628,0,0,0,0-5.13L134.507,7a3.628,3.628,0,0,0-5.13,0l-2.7,2.695a1.184,1.184,0,0,1-1.364.233,25.128,25.128,0,0,0-3.28-1.366,1.18,1.18,0,0,1-.8-1.127v-3.8A3.628,3.628,0,0,0,117.611,0h-7.257a3.628,3.628,0,0,0-3.629,3.629v3.8a1.18,1.18,0,0,1-.793,1.127,25.2,25.2,0,0,0-3.279,1.364,1.182,1.182,0,0,1-1.366-.232l-2.7-2.7a3.636,3.636,0,0,0-5.13,0l-5.133,5.133a3.629,3.629,0,0,0,0,5.131l3.966,3.973A1.21,1.21,0,0,0,94,19.524l-3.968-3.972a1.21,1.21,0,0,1,0-1.71l5.133-5.133a1.21,1.21,0,0,1,1.71,0l2.7,2.7a3.6,3.6,0,0,0,4.156.682,22.884,22.884,0,0,1,2.964-1.232,3.6,3.6,0,0,0,2.444-3.423v-3.8a1.21,1.21,0,0,1,1.21-1.21h7.257a1.21,1.21,0,0,1,1.21,1.21v3.8a3.6,3.6,0,0,0,2.444,3.422,22.813,22.813,0,0,1,2.966,1.234,3.6,3.6,0,0,0,4.155-.683l2.7-2.7a1.21,1.21,0,0,1,1.71,0l5.133,5.134a1.209,1.209,0,0,1,0,1.709l-2.7,2.7a3.6,3.6,0,0,0-.682,4.156,22.881,22.881,0,0,1,1.232,2.964,3.6,3.6,0,0,0,3.423,2.444h3.8a1.21,1.21,0,0,1,1.21,1.21v7.257a1.21,1.21,0,0,1-1.21,1.21h-3.8a3.6,3.6,0,0,0-3.422,2.444,22.787,22.787,0,0,1-1.234,2.966,3.6,3.6,0,0,0,.683,4.155l2.7,2.7a1.21,1.21,0,0,1,0,1.71L132.8,56.6a1.209,1.209,0,0,1-1.709,0l-3.974-3.966a1.209,1.209,0,1,0-1.737,1.683l.03.03,3.973,3.966a3.628,3.628,0,0,0,5.13,0l5.133-5.132a3.629,3.629,0,0,0,0-5.131l-2.694-2.7a1.185,1.185,0,0,1-.233-1.364,25.126,25.126,0,0,0,1.366-3.28,1.18,1.18,0,0,1,1.127-.8h3.8a3.628,3.628,0,0,0,3.629-3.629V29.028A3.628,3.628,0,0,0,143.01,25.4Z" transform="translate(-87.261)"/></g><g transform="translate(28.456 16.94)"><path class="a" d="M210.794,116.648a15.739,15.739,0,0,0-22.235,0,1.21,1.21,0,0,0,1.71,1.71,13.3,13.3,0,0,1,18.941,18.689l-.126.126a1.209,1.209,0,0,0,1.681,1.74l.03-.03A15.739,15.739,0,0,0,210.794,116.648Z" transform="translate(-188.219 -112.049)"/></g></svg>